<?xml version="1.0" encoding="utf-8"?>
<!-- Generator: Adobe Illustrator 24.0.1, SVG Export Plug-In . SVG Version: 6.00 Build 0)  -->
<svg version="1.1" id="Layer_1" xmlns="http://www.w3.org/2000/svg" xmlns:xlink="http://www.w3.org/1999/xlink" x="0px" y="0px"
	 viewBox="0 0 500 146" style="enable-background:new 0 0 500 146;" xml:space="preserve">
<style type="text/css">
	.st0{fill:#3EC196;}
	.st1{fill:#373542;}
</style>
<g>
	<g>
		<g>
			<path class="st0" d="M142.7,66.9c-1.6-8.3-6.2-15.5-13.1-20.4c-0.1-0.1-0.2-0.1-0.3-0.2c-0.1,0-0.1-0.1-0.2-0.1
				c-7.2-4.9-15.8-6.6-24.3-5c-8.4,1.6-15.7,6.3-20.5,13.3c-0.1,0.1-0.1,0.2-0.2,0.3c-4.9,7.2-6.6,15.8-5,24.3
				c1.6,8.5,6.5,15.9,13.6,20.7c5.4,3.7,11.7,5.6,18.1,5.6c2,0,4.1-0.2,6.2-0.6c4.3-0.8,8.2-2.4,11.7-4.7c3.4-2.3,6.4-5.1,8.8-8.6
				c0.1-0.1,0.1-0.2,0.2-0.3C142.5,84,144.3,75.4,142.7,66.9z M132.4,87.6c-0.1,0.1-0.1,0.2-0.2,0.3c-3.9,5.6-9.7,9.4-16.5,10.7
				c-0.6,0.1-1.2,0.2-1.8,0.3c-6,0.7-11.9-0.6-17-3.8c-0.2-0.1-0.5-0.3-0.7-0.5c-5.7-3.9-9.6-9.8-10.9-16.7
				c-0.1-0.8-0.3-1.6-0.3-2.3c-0.6-6,0.9-12.1,4.4-17.2c0.1-0.1,0.1-0.2,0.2-0.3c3.9-5.6,9.7-9.4,16.5-10.7c1-0.2,1.9-0.3,2.9-0.4
				c0.7-0.1,1.4-0.1,2-0.1c5.2,0,10.2,1.5,14.6,4.5c0.2,0.1,0.3,0.2,0.5,0.4c5.5,3.9,9.1,9.7,10.4,16.3c0.1,0.8,0.3,1.6,0.3,2.3
				c0.1,0.9,0.1,1.7,0.1,2.6C136.9,78.2,135.3,83.3,132.4,87.6z"/>
		</g>
		<g>
			<g>
				<path class="st0" d="M115.4,72.7c3.3,3.4,5,7.9,5,12.4c0,3.5-1,6.9-3.1,10c-1,1.4-2.1,2.7-3.4,3.7c-6,0.7-11.9-0.6-17-3.8
					c2.4,1.4,5.1,1.8,7.8,1.3c3-0.6,5.6-2.3,7.3-4.8c3-4.4,2.5-10.2-0.9-14c-0.6-0.7-1.3-1.3-2.1-1.8v0c-1-0.7-1.9-1.5-2.7-2.4
					c-2.2-2.4-3.6-5.3-4.3-8.6c-0.9-4.7,0.1-9.4,2.8-13.3c1.1-1.7,2.5-3.1,4-4.2c0.7-0.1,1.4-0.1,2-0.1c5.2,0,10.2,1.5,14.6,4.5
					c0.2,0.1,0.3,0.2,0.5,0.4c-5.2-3.5-12.3-2.2-15.8,3c-1.7,2.5-2.3,5.6-1.8,8.5c0.4,1.9,1.2,3.6,2.3,5c0.7,0.9,1.5,1.7,2.5,2.3
					C114,71.3,114.8,72,115.4,72.7z"/>
				<path class="st0" d="M129.6,46.5L129.6,46.5c-0.1-0.1-0.2-0.1-0.3-0.2C129.4,46.4,129.5,46.5,129.6,46.5z"/>
			</g>
			<g>
				<path class="st0" d="M109.1,75.6c0.8,0.5,1.5,1.2,2.1,1.8c-5.9,5.6-15.2,6.6-22.2,1.8c-1.6-1-2.9-2.3-4-3.7
					c-0.6-6,0.9-12.1,4.4-17.2c0.1-0.1,0.1-0.2,0.2-0.3c-3.5,5.2-2.2,12.3,3,15.8c4.3,3,10,2.5,13.8-0.8
					C107.2,74.1,108.1,74.9,109.1,75.6L109.1,75.6z"/>
				<path class="st0" d="M136.9,73.1c0,5.1-1.6,10.2-4.5,14.6c-0.1,0.1-0.1,0.2-0.2,0.3c3.5-5.2,2.2-12.3-3-15.8
					c-4.3-2.9-9.9-2.5-13.7,0.7c-0.7-0.7-1.5-1.4-2.3-2c-0.9-0.7-1.8-1.4-2.5-2.3c5.9-5.5,15.1-6.4,22.1-1.7c1.6,1,2.9,2.3,4,3.7
					C136.8,71.3,136.9,72.2,136.9,73.1z"/>
			</g>
		</g>
	</g>
	<g>
		<path class="st1" d="M185.6,86h-21.1l-4.2,9.8h-8.1l19-42.2h7.7l19,42.2h-8.2L185.6,86z M183,79.8l-8-18.4l-7.9,18.4H183z"/>
		<path class="st1" d="M231.2,63.6l-13.8,32.2h-7.8l-13.8-32.2h7.8l10,23.9l10.3-23.9H231.2z"/>
		<path class="st1" d="M240.6,94.1c-2.6-1.4-4.6-3.4-6.1-5.9c-1.5-2.5-2.2-5.4-2.2-8.5c0-3.2,0.7-6,2.2-8.5c1.5-2.5,3.5-4.4,6.1-5.8
			c2.6-1.4,5.5-2.1,8.8-2.1c3.3,0,6.2,0.7,8.9,2.1c2.6,1.4,4.6,3.4,6.1,5.8c1.5,2.5,2.2,5.3,2.2,8.5c0,3.2-0.7,6-2.2,8.5
			c-1.5,2.5-3.5,4.5-6.1,5.9c-2.6,1.4-5.6,2.1-8.9,2.1C246.2,96.2,243.2,95.5,240.6,94.1z M256.3,87c1.8-1.8,2.7-4.3,2.7-7.3
			c0-3-0.9-5.4-2.7-7.3s-4.1-2.8-6.9-2.8c-2.8,0-5.1,0.9-6.8,2.8c-1.8,1.8-2.7,4.3-2.7,7.3c0,3,0.9,5.4,2.7,7.3
			c1.8,1.8,4.1,2.8,6.8,2.8C252.2,89.7,254.5,88.8,256.3,87z"/>
		<path class="st1" d="M273.8,51h7.5v44.7h-7.5V51z"/>
		<path class="st1" d="M314.4,66.6c2.5,2.3,3.8,5.7,3.8,10.3v18.9h-7.1v-3.9c-0.9,1.4-2.2,2.5-3.9,3.2c-1.7,0.7-3.8,1.1-6.2,1.1
			s-4.5-0.4-6.3-1.2c-1.8-0.8-3.2-2-4.2-3.4c-1-1.5-1.5-3.1-1.5-5c0-2.9,1.1-5.2,3.2-7c2.1-1.7,5.5-2.6,10.2-2.6h8.3v-0.5
			c0-2.2-0.7-4-2-5.2c-1.3-1.2-3.3-1.8-6-1.8c-1.8,0-3.6,0.3-5.3,0.8s-3.2,1.3-4.4,2.3l-3-5.5c1.7-1.3,3.7-2.3,6.1-3
			c2.4-0.7,4.9-1,7.5-1C308.3,63.2,311.9,64.4,314.4,66.6z M307.5,89.4c1.5-0.9,2.5-2.1,3.1-3.7V82h-7.8c-4.3,0-6.5,1.4-6.5,4.3
			c0,1.4,0.5,2.5,1.6,3.3c1.1,0.8,2.6,1.2,4.5,1.2C304.4,90.7,306.1,90.3,307.5,89.4z"/>
		<path class="st1" d="M355.8,66.8c2.5,2.4,3.7,5.9,3.7,10.5v18.4H352V78.3c0-2.8-0.7-4.9-2-6.4c-1.3-1.4-3.2-2.1-5.7-2.1
			c-2.8,0-5,0.8-6.6,2.5c-1.6,1.7-2.4,4.1-2.4,7.2v16.3h-7.5V63.6h7.2v4.2c1.2-1.5,2.8-2.6,4.7-3.4c1.9-0.8,4-1.1,6.4-1.1
			C350.1,63.2,353.4,64.4,355.8,66.8z"/>
		<path class="st1" d="M388.4,94c-0.9,0.7-2,1.3-3.2,1.6c-1.3,0.4-2.6,0.5-4,0.5c-3.5,0-6.3-0.9-8.2-2.8c-1.9-1.8-2.9-4.5-2.9-8.1
			V69.8h-5.3v-6h5.3v-7.4h7.5v7.4h8.6v6h-8.6v15.3c0,1.6,0.4,2.8,1.1,3.6c0.8,0.8,1.9,1.2,3.3,1.2c1.7,0,3.1-0.4,4.2-1.3L388.4,94z"
			/>
		<path class="st1" d="M417.8,66.6c2.5,2.3,3.8,5.7,3.8,10.3v18.9h-7.1v-3.9c-0.9,1.4-2.2,2.5-3.9,3.2c-1.7,0.7-3.8,1.1-6.2,1.1
			s-4.5-0.4-6.3-1.2c-1.8-0.8-3.2-2-4.2-3.4c-1-1.5-1.5-3.1-1.5-5c0-2.9,1.1-5.2,3.2-7c2.1-1.7,5.5-2.6,10.2-2.6h8.3v-0.5
			c0-2.2-0.7-4-2-5.2c-1.3-1.2-3.3-1.8-6-1.8c-1.8,0-3.6,0.3-5.3,0.8s-3.2,1.3-4.4,2.3l-3-5.5c1.7-1.3,3.7-2.3,6.1-3
			c2.4-0.7,4.9-1,7.5-1C411.7,63.2,415.3,64.4,417.8,66.6z M410.9,89.4c1.5-0.9,2.5-2.1,3.1-3.7V82h-7.8c-4.3,0-6.5,1.4-6.5,4.3
			c0,1.4,0.5,2.5,1.6,3.3c1.1,0.8,2.6,1.2,4.5,1.2C407.8,90.7,409.5,90.3,410.9,89.4z"/>
	</g>
</g>
</svg>
